<svg width="16" height="15" viewBox="0 0 16 15" fill="none" xmlns="http://www.w3.org/2000/svg">
<path d="M4.99833 12C4.17364 12 3.50638 12.675 3.50638 13.5C3.50638 14.325 4.17364 15 4.99833 15C5.82302 15 6.49777 14.325 6.49777 13.5C6.49777 12.675 5.82302 12 4.99833 12ZM0.5 0.75C0.5 1.1625 0.837375 1.5 1.24972 1.5H1.99944L4.69844 7.1925L3.68632 9.0225C3.13902 10.0275 3.85875 11.25 4.99833 11.25H13.2453C13.6576 11.25 13.995 10.9125 13.995 10.5C13.995 10.0875 13.6576 9.75 13.2453 9.75H4.99833L5.82302 8.25H11.4084C11.9707 8.25 12.4656 7.9425 12.7205 7.4775L15.4045 2.61C15.6819 2.115 15.322 1.5 14.7522 1.5H3.65633L3.15401 0.4275C3.03406 0.165 2.76416 0 2.47927 0H1.24972C0.837375 0 0.5 0.3375 0.5 0.75ZM12.4955 12C11.6709 12 11.0036 12.675 11.0036 13.5C11.0036 14.325 11.6709 15 12.4955 15C13.3202 15 13.995 14.325 13.995 13.5C13.995 12.675 13.3202 12 12.4955 12Z" fill="white"/>
</svg>
